<?xml version="1.0" standalone="no"?>
<!DOCTYPE svg PUBLIC "-//W3C//DTD SVG 20010904//EN"
 "http://www.w3.org/TR/2001/REC-SVG-20010904/DTD/svg10.dtd">
<svg version="1.0" xmlns="http://www.w3.org/2000/svg"
 width="580.000000pt" height="580.000000pt" viewBox="0 0 580.000000 580.000000"
 preserveAspectRatio="xMidYMid meet">
<metadata>
Created by potrace 1.11, written by Peter Selinger 2001-2013
</metadata>
<g transform="translate(0.000000,580.000000) scale(0.100000,-0.100000)"
fill="#000000" stroke="none">
<path d="M1615 5290 c-16 -4 -57 -8 -90 -9 -80 -2 -222 -28 -320 -59 -61 -19
-192 -86 -253 -130 -71 -50 -184 -154 -210 -194 -9 -14 -30 -45 -46 -69 -69
-103 -115 -211 -144 -339 -6 -25 -13 -56 -17 -70 -24 -102 -29 -340 -30 -1450
0 -1170 5 -1378 36 -1575 14 -87 45 -197 70 -249 10 -22 19 -46 19 -53 0 -7 5
-13 12 -13 6 0 8 -3 5 -7 -4 -3 4 -21 18 -39 14 -18 25 -36 25 -40 0 -35 240
-284 274 -284 3 0 25 -13 49 -30 70 -47 223 -110 267 -110 14 0 30 -4 36 -9
34 -33 282 -41 1394 -47 1258 -7 1614 2 1785 47 84 22 176 53 181 61 3 4 14 8
25 8 10 0 19 3 19 8 0 4 23 18 51 32 27 13 59 32 69 42 11 10 22 18 25 18 20
0 166 149 220 225 67 94 126 218 146 305 29 130 40 212 54 415 14 200 16 379
12 1370 -5 1095 -9 1259 -37 1400 -31 154 -99 313 -182 424 -40 53 -142 159
-184 191 -55 42 -86 61 -149 93 -154 80 -242 104 -460 129 -107 12 -2625 20
-2670 8z m598 -1085 c207 -40 389 -154 517 -324 14 -18 28 -38 31 -43 3 -5 69
-11 145 -12 117 -2 153 -7 229 -30 233 -70 430 -236 532 -446 l36 -75 141 0
c185 0 285 -28 431 -122 233 -151 369 -420 351 -697 -9 -154 -60 -291 -154
-419 -45 -61 -156 -166 -199 -187 -15 -8 -45 -25 -67 -38 -21 -13 -80 -38
-130 -55 l-91 -32 -920 0 c-864 0 -924 1 -980 18 -212 65 -362 204 -446 412
-28 70 -33 95 -37 195 -4 97 -1 129 17 193 11 43 21 79 21 81 0 2 -28 22 -62
44 -246 160 -392 453 -375 752 18 321 213 602 504 729 65 28 148 53 213 64 60
10 221 6 293 -8z"/>
</g>
</svg>
